<?xml version="1.0" standalone="no"?>
<!DOCTYPE svg PUBLIC "-//W3C//DTD SVG 20010904//EN"
 "http://www.w3.org/TR/2001/REC-SVG-20010904/DTD/svg10.dtd">
<svg version="1.0" xmlns="http://www.w3.org/2000/svg"
 width="280.000000pt" height="174.000000pt" viewBox="0 0 280.000000 174.000000"
 preserveAspectRatio="xMidYMid meet">

<g transform="translate(0.000000,174.000000) scale(0.100000,-0.100000)"
fill="#000000" stroke="none">
<path d="M1260 1547 c-64 -34 -90 -88 -90 -187 l0 -76 60 0 60 1 0 56 c0 69
26 109 70 109 49 0 72 -29 79 -100 l6 -64 53 -2 52 -1 0 77 c0 100 -26 154
-89 187 -60 31 -142 31 -201 0z"/>
<path d="M256 1433 c24 -70 49 -132 55 -138 13 -13 109 -14 109 -1 0 6 -15 67
-34 136 l-33 125 -71 3 -72 3 46 -128z"/>
<path d="M511 1448 c-47 -171 -48 -163 9 -165 43 -2 49 1 60 25 13 28 90 240
90 248 0 2 -29 4 -64 4 l-63 0 -32 -112z"/>
<path d="M780 1548 c0 -7 -7 -60 -15 -118 -21 -154 -23 -146 29 -146 l44 0 12
58 c13 66 25 68 35 5 10 -58 14 -63 60 -63 22 0 43 5 46 11 6 9 -16 223 -26
253 -3 8 -31 12 -95 12 -65 0 -90 -3 -90 -12z"/>
<path d="M1646 1433 c3 -71 7 -133 9 -140 3 -8 22 -11 57 -9 l53 3 6 129 c3
71 4 132 2 137 -2 4 -33 7 -69 7 l-64 0 6 -127z"/>
<path d="M1927 1553 c-2 -5 -1 -66 2 -138 l6 -130 53 -1 c32 -1 55 3 57 10 2
6 6 68 9 139 l6 127 -64 0 c-36 0 -67 -3 -69 -7z"/>
<path d="M2130 1500 l0 -59 68 -3 67 -3 5 -75 5 -75 53 -1 c48 0 55 2 63 24 5
13 9 48 9 78 l0 54 70 0 70 0 0 60 0 60 -205 0 -205 0 0 -60z"/>
<path d="M985 980 c-16 -4 -41 -13 -55 -20 l-25 -14 40 -7 c32 -6 44 -3 59 11
25 25 17 38 -19 30z"/>
<path d="M875 940 c-3 -5 -1 -10 4 -10 6 0 11 5 11 10 0 6 -2 10 -4 10 -3 0
-8 -4 -11 -10z"/>
<path d="M1761 794 c0 -11 3 -14 6 -6 3 7 2 16 -1 19 -3 4 -6 -2 -5 -13z"/>
<path d="M1680 759 c0 -5 5 -7 10 -4 6 3 10 8 10 11 0 2 -4 4 -10 4 -5 0 -10
-5 -10 -11z"/>
<path d="M2158 463 c7 -3 16 -2 19 1 4 3 -2 6 -13 5 -11 0 -14 -3 -6 -6z"/>
<path d="M2108 453 c7 -3 16 -2 19 1 4 3 -2 6 -13 5 -11 0 -14 -3 -6 -6z"/>
<path d="M2048 443 c7 -3 16 -2 19 1 4 3 -2 6 -13 5 -11 0 -14 -3 -6 -6z"/>
<path d="M1340 320 c-12 -8 -11 -10 7 -10 12 0 25 5 28 10 8 13 -15 13 -35 0z"/>
<path d="M1398 323 c7 -3 16 -2 19 1 4 3 -2 6 -13 5 -11 0 -14 -3 -6 -6z"/>
<path d="M1215 300 c-20 -5 -24 -8 -10 -9 11 -1 30 -4 41 -7 14 -4 23 0 27 10
7 18 -7 19 -58 6z"/>
<path d="M1148 283 c7 -3 16 -2 19 1 4 3 -2 6 -13 5 -11 0 -14 -3 -6 -6z"/>
<path d="M1038 263 c7 -3 16 -2 19 1 4 3 -2 6 -13 5 -11 0 -14 -3 -6 -6z"/>
</g>
</svg>
